<svg xmlns="http://www.w3.org/2000/svg" width="17" height="21" viewBox="0 0 17 21">
    <g fill="none" fill-rule="evenodd">
        <g fill="#FFF" fill-rule="nonzero">
            <g>
                <path d="M15.583 5.283c-.8-1.022-1.886-1.849-3.16-2.412V0H4.577v2.871c-1.274.563-2.36 1.39-3.16 2.412C.49 6.47 0 7.853 0 9.284c0 1.432.49 2.816 1.417 4.001.8 1.022 1.886 1.85 3.16 2.412v2.871h.654V21h1.307v-2.432h1.308V21h1.308v-2.432h1.308V21h1.307v-2.432h.654v-2.87c1.274-.564 2.36-1.39 3.16-2.413.927-1.185 1.417-2.569 1.417-4 0-1.433-.49-2.816-1.417-4.002zM5.885 1.326h5.23v1.327h-5.23V1.326zm5.884 7.958c0 2.253-.727 4.301-1.867 5.305h-.748V3.98h.748c1.14 1.004 1.867 3.053 1.867 5.305zM7.846 3.98v10.61h-.748c-1.14-1.004-1.867-3.052-1.867-5.305 0-2.252.727-4.301 1.867-5.305h.748zm-2.493 10.61c-2.462-.987-4.045-3.058-4.045-5.305 0-2.246 1.583-4.318 4.045-5.305h.015c-.912 1.338-1.445 3.236-1.445 5.305 0 2.07.533 3.968 1.445 5.305h-.015zm5.762 2.653h-5.23v-1.326h5.23v1.326zm.532-2.653h-.015c.912-1.337 1.445-3.236 1.445-5.305 0-2.069-.533-3.967-1.445-5.305h.015c2.462.987 4.045 3.059 4.045 5.305 0 2.247-1.583 4.318-4.045 5.305z" transform="translate(-19 -1413) translate(19 1413)"/>
            </g>
        </g>
    </g>
</svg>
